<?xml version="1.0" encoding="utf-8"?>
<!-- Generator: Adobe Illustrator 19.2.1, SVG Export Plug-In . SVG Version: 6.00 Build 0)  -->
<svg version="1.1" id="layer" xmlns="http://www.w3.org/2000/svg" xmlns:xlink="http://www.w3.org/1999/xlink" x="0px" y="0px"
	 viewBox="0 0 652 652" style="enable-background:new 0 0 652 652;" xml:space="preserve">
<style type="text/css">
	.st0{fill:#00ADE2;}
	.st1{fill:#1C3A6A;}
</style>
<path class="st0" d="M26.8,269.4h14.8v29h0.3c3.6-5.7,12.8-10.3,22.5-10.3c20.1,0.3,36.2,16.7,35.9,36.8
	c-0.2,19.7-16.2,35.7-35.9,35.9c-9.7,0-19-4.6-22.5-10.3h-0.3v8.4H26.8V269.4z M63.2,302c-12.4-0.5-22.8,9.2-23.3,21.5
	c-0.5,12.4,9.2,22.8,21.5,23.3c12.4,0.5,22.8-9.2,23.3-21.5c0-0.3,0-0.6,0-0.9c0.6-11.8-8.5-21.8-20.3-22.4
	C64,302,63.6,302,63.2,302 M129.3,269.4v61.8c0,8,1.7,10.8,6.1,13.4l8,4.6l-6.6,11.7c-15.3-7.3-22.4-12.6-22.4-27v-64.5H129.3z
	 M151.2,289.9h14.8v38.7c-0.4,9.2,6.8,17,16,17.4c9.2,0.4,17-6.8,17.4-16c0-0.5,0-0.9,0-1.4v-38.7h14.8v39.9c0,19.4-15.1,31-31.5,31
	s-31.5-11.6-31.5-31V289.9z M299.3,344c-7.6,10.2-19.4,16.4-32.1,16.8c-24.1,0-38.1-18.1-38.1-36.4c0-18.3,14-36.4,38.1-36.4
	c14.4,0,35.8,11.8,35.8,38.8v2.7h-57.4c0.9,10.6,10.7,18.1,21.1,18.1c8-0.1,15.5-4.1,20-10.7L299.3,344z M285.6,317.3
	c-3.1-10.6-11-16.1-20.4-16.1c-9.6-0.1-17.8,6.7-19.5,16.1H285.6z M332.7,298.3h0.3c5.6-6.7,13.9-10.5,22.7-10.3
	c22.7,0,35.8,18.5,35.8,36.4c-0.3,20-16.5,36.1-36.5,36.4c-10.3,0-18.1-4.4-22-10.3h-0.3v32.2h-14.8v-92.9h14.8V298.3z M353.8,302
	c-12.4-0.2-22.6,9.6-22.8,22c-0.2,12.4,9.6,22.6,22,22.8c12.4,0.2,22.6-9.6,22.8-22c0-0.1,0-0.3,0-0.4
	C375.9,312.2,366,302.2,353.8,302 M405.1,289.9h14v7.6h0.3c2.2-5.6,7.5-9.3,13.6-9.4c2.9-0.1,5.7,0.7,8.1,2.1l-5.3,14.7
	c-1.6-1.2-3.6-1.9-5.6-2c-5.6-0.1-10.2,4.4-10.3,10.1c0,0.1,0,0.2,0,0.4v45.7h-14.8V289.9z M457.8,267.5c4.6,0,8.3,3.7,8.3,8.3
	c0,4.6-3.7,8.3-8.3,8.3c-4.6,0-8.3-3.7-8.3-8.3c0,0,0,0,0,0C449.5,271.2,453.2,267.5,457.8,267.5 M450.4,289.9h14.8v69h-14.8V289.9z
	 M484.3,289.9h14.8v8.7h0.3c4.8-6.9,12.7-10.9,21.1-10.6c14.6,0,26.8,12.1,26.8,29.2V359h-14.8v-38.4c0-12.6-6.6-17.7-16.4-17.7
	c-9.6,0-17,6.1-17,17.4V359h-14.8V289.9z M559.9,289.9h8.4v-18.3l14.8-4.1v22.4H595v14h-11.8v27.2c0,7.4,1.7,10.8,6.1,13.4l8,4.6
	l-6.6,11.7c-15.3-7.3-22.4-12.6-22.4-27v-30h-8.4L559.9,289.9z"/>
<path id="Tracé_13" class="st1" d="M618.1,343.4c4.8,0,8.7,3.9,8.7,8.7c0,4.8-3.9,8.7-8.7,8.7c-4.8,0-8.7-3.9-8.7-8.7
	c0-4.8,3.8-8.7,8.6-8.7C618.1,343.4,618.1,343.4,618.1,343.4"/>
</svg>
